<svg width="792" height="1000" viewBox="0 0 792 1000" fill="none" xmlns="http://www.w3.org/2000/svg">
<path d="M786.948 103.803C786.937 103.923 786.93 104.044 786.93 104.166C786.93 106.136 788.367 107.769 790.249 108.076C776.988 140.698 693.001 353.105 693.001 500C693.001 644.846 774.66 853.39 789.652 890.456C789.426 890.454 789.186 890.466 788.94 890.497L788.685 890.538C786.709 890.9 785.827 892.445 785.731 892.597C785.545 892.893 785.424 893.157 785.347 893.347C785.311 893.434 785.283 893.509 785.266 893.553C785.258 893.576 785.25 893.597 785.245 893.611L785.232 893.646C785.088 894.038 785.02 894.38 784.983 894.605C784.965 894.717 784.953 894.812 784.946 894.871L784.935 894.969C784.878 895.428 784.891 895.891 784.909 896.197H4.78139C4.80778 896.012 4.82238 895.823 4.82238 895.631C4.82229 893.77 3.53913 892.208 1.80984 891.783C15.2531 858.695 99.0008 646.686 99.0008 500C99.0008 353.819 15.8283 142.761 1.95138 108.564C3.05753 108.112 3.94759 107.168 4.28175 105.925C4.47576 105.202 4.4574 104.473 4.26473 103.803H786.948Z" fill="#0A68A8"/>
<path d="M792 900.951C792 955.654 614.705 1000 396 1000C177.295 1000 0 955.654 0 900.951C0 846.248 177.295 801.902 396 801.902C614.705 801.902 792 846.248 792 900.951Z" fill="#05131E"/>
<path d="M792 99.0491C792 153.752 614.705 198.098 396 198.098C177.295 198.098 0 153.752 0 99.0491C0 44.3458 177.295 0 396 0C614.705 0 792 44.3458 792 99.0491Z" fill="#05131E"/>
<path d="M237.6 658.479C226.71 658.479 217.387 654.599 209.632 646.84C201.877 639.081 198 629.754 198 618.859V381.141C198 370.246 201.877 360.919 209.632 353.16C217.387 345.401 226.71 341.521 237.6 341.521H554.4C565.29 341.521 574.612 345.401 582.367 353.16C590.122 360.919 594 370.246 594 381.141V618.859C594 629.754 590.122 639.081 582.367 646.84C574.612 654.599 565.29 658.479 554.4 658.479H237.6ZM237.6 618.859H554.4V381.141H237.6V618.859ZM277.2 579.239H514.8V420.761H277.2V579.239Z" fill="#C0683E"/>
</svg>
